<svg xmlns="http://www.w3.org/2000/svg" version="1.1" xmlns:xlink="http://www.w3.org/1999/xlink" xmlns:svgjs="http://svgjs.dev/svgjs" width="100%" height="100%" viewBox="0 0 1000 600"><rect width="1000" height="600" x="0" y="0" fill="#AA96D"/><g><circle r="166.66666666666666" cx="374.4902903238932" cy="396.7125290162477" fill="#c5fad5" transform="matrix(0.6014714317222729,0,0,0.6014714317222728,0,61.38872350937439)"/><path d="M343.8069604421525 471.7125305462498L324.93256908965424 471.7125305462498L324.93256908965424 321.712534595464L373.16343908356015 321.712534595464Q397.87595500203327 321.712534595464 410.97856411317 334.2180627850806Q424.0480020620001 346.69041981239053 424.0480020620001 368.0526483378894L424.0480020620001 368.0526483378894Q424.0480020620001 389.1826787272416 410.97856411317 401.5555222676315Q397.87595500203327 413.9283658080214 373.16343908356015 413.9283658080214L373.16343908356015 413.9283658080214L343.8069604421525 413.9283658080214L343.8069604421525 471.7125305462498ZM343.8069604421525 337.73420598958813L343.8069604421525 397.67449627775045L373.16343908356015 397.67449627775045Q388.8202276923109 397.67449627775045 396.880820132833 389.6802461618417Q404.9414125733551 381.68599604593294 404.9414125733551 368.0526483378894L404.9414125733551 368.0526483378894Q404.9414125733551 354.22027365600576 396.880820132833 345.9606542416436Q388.8202276923109 337.73420598958813 373.16343908356015 337.73420598958813L373.16343908356015 337.73420598958813L343.8069604421525 337.73420598958813Z " fill="#aa96da" transform="matrix(0.6014714317222729,0,0,0.6014714317222728,0,61.38872350937439)"/><path d="M641.4013213489128 469.15655876291567L624.4902854987713 469.15655876291567L624.4902854987713 334.75989072365337L667.7040748240892 334.75989072365337Q689.8459407438703 334.75989072365337 701.5855877751636 345.9645664978245Q713.2955141810613 357.1395216466 713.2955141810613 376.2796044014175L713.2955141810613 376.2796044014175Q713.2955141810613 395.21164277846526 701.5855877751636 406.2974360510537Q689.8459407438703 417.3832293236421 667.7040748240892 417.3832293236421L667.7040748240892 417.3832293236421L641.4013213489128 417.3832293236421L641.4013213489128 469.15655876291567ZM641.4013213489128 349.1149527897665L641.4013213489128 402.8201228797592L667.7040748240892 402.8201228797592Q681.7322100108498 402.8201228797592 688.9543219819999 395.65745215940046Q696.17643395315 388.49478143904173 696.17643395315 376.2796044014175L696.17643395315 376.2796044014175Q696.17643395315 363.8861036114192 688.9543219819999 356.48566788789503Q681.7322100108498 349.1149527897665 667.7040748240892 349.1149527897665L667.7040748240892 349.1149527897665L641.4013213489128 349.1149527897665ZM780.3749656991098 471.7125325469441L780.3749656991098 471.7125325469441Q766.5845955155145 471.7125325469441 755.8257291222786 465.6198043408298Q745.0668627290427 459.5270761347155 738.8552520213457 447.54966410025673Q732.6436413136487 435.5722520657979 732.6436413136487 418.00736245695134L732.6436413136487 418.00736245695134Q732.6436413136487 400.35331097191784 738.8552520213457 388.4353401882504Q745.0668627290427 376.4876487791872 755.8257291222786 370.39492057307297Q766.5845955155145 364.3021923669587 780.3749656991098 364.3021923669587L780.3749656991098 364.3021923669587Q794.0761740065179 364.3021923669587 804.8350403997539 370.39492057307297Q815.5641861675941 376.4876487791872 821.7163556244998 388.4353401882504Q827.8685250814054 400.35331097191784 827.8685250814054 418.00736245695134L827.8685250814054 418.00736245695134Q827.8685250814054 435.5722520657979 821.7163556244998 447.54966410025673Q815.5641861675941 459.5270761347155 804.8350403997539 465.6198043408298Q794.0761740065179 471.7125325469441 780.3749656991098 471.7125325469441ZM779.9588769435703 457.17914672845683L779.9588769435703 457.17914672845683Q789.8855658257272 457.17914672845683 796.8401921683162 452.4238466651481Q803.7948185109052 447.63882597644374 807.3910141837823 438.8712414847183Q810.9872098566595 430.1036569929929 810.9872098566595 418.00736245695134L810.9872098566595 418.00736245695134Q810.9872098566595 399.7291778386085 803.3787297553656 389.17835582314234Q795.7702496540718 378.6275338076762 780.7910544546493 378.6275338076762L780.7910544546493 378.6275338076762Q770.7454830709097 378.6275338076762 763.850297979112 383.41255449638055Q756.9551128873144 388.16785455968926 753.3589172144372 396.994880302206Q749.7627215415599 405.8219060447228 749.7627215415599 418.00736245695134L749.7627215415599 418.00736245695134Q749.7627215415599 436.10722332292016 757.4306428936453 446.62832471299066Q765.0688436203349 457.17914672845683 779.9588769435703 457.17914672845683ZM876.9967188604636 469.15655876291567L860.2937273880917 469.15655876291567L860.2937273880917 366.65012177321734L876.9967188604636 366.65012177321734L876.9967188604636 469.15655876291567ZM876.9967188604636 422.9409862726342L871.8550506670109 422.9409862726342Q871.8550506670109 403.47397663846414 875.5998494668667 390.5752252167393Q879.3446482667222 377.67647379501443 886.5667602378722 371.31625996033904Q893.7888722090223 364.95604612566365 904.1613704721145 364.95604612566365L904.1613704721145 364.95604612566365Q907.5792423926176 364.95604612566365 910.4324224306029 365.4315761319945Q913.2558818431925 365.9071061383254 916.1387825065733 366.85816615098713L916.1387825065733 366.85816615098713L915.0688399923289 383.35311324558916Q912.0967774527609 382.37233260753175 908.5600230306751 381.68875822343114Q905.0232686085892 381.0051838393305 902.2295298213953 381.0051838393305L902.2295298213953 381.0051838393305Q893.1350184503175 381.0051838393305 887.5772615013254 386.1765726581787Q882.0195045523334 391.3776821024226 879.4932513937006 400.799120352853Q876.9967188604636 410.19083797788767 876.9967188604636 422.9409862726342L876.9967188604636 422.9409862726342ZM969.1009369616739 471.7125325469441L969.1009369616739 471.7125325469441Q960.7791618508837 471.7125325469441 954.1217417622516 468.5027050042107Q947.4940422990152 465.2928774614773 943.6600816229724 458.8732223760105Q939.7964003215342 452.4535672905438 939.7964003215342 442.8240846623437L939.7964003215342 442.8240846623437L939.7964003215342 338.4155276473219L956.2616267907405 338.4155276473219L956.2616267907405 442.40799590680416Q956.2616267907405 458.2490892427013 971.0327776123931 458.2490892427013L971.0327776123931 458.2490892427013Q975.4314301709536 458.2490892427013 979.5328764755575 457.26830860464383Q983.664043405557 456.3172485919821 988.8057115990094 454.385407941263L988.8057115990094 454.385407941263L991.1536410052681 466.3628199757218Q985.6850459324631 468.74047000737613 980.3056127358451 470.2265012771601Q974.8964589138315 471.7125325469441 969.1009369616739 471.7125325469441ZM988.5976672212397 378.4194894299064L923.3311738523278 378.4194894299064L923.3311738523278 366.85816615098713L988.5976672212397 366.85816615098713L988.5976672212397 378.4194894299064ZM1040.3709966605134 469.15655876291567L1023.6680051881414 469.15655876291567L1023.6680051881414 351.04679344048566Q1023.6680051881414 340.88233955516336 1027.5911277403711 334.4032432189052Q1031.4845296672052 327.9241468826471 1038.082508505046 324.8332018414964Q1044.650766717491 321.7125361749501 1052.7942180759073 321.7125361749501L1052.7942180759073 321.7125361749501Q1057.163150009072 321.7125361749501 1061.710405694611 322.36638993365506Q1066.2576613801502 322.9905230669643 1070.7454758148974 324.2982305843742L1070.7454758148974 324.2982305843742L1067.535648272164 337.5536295108472Q1064.3258207294307 336.275642618833 1061.175434437489 335.62178886012805Q1058.0250481455469 334.9976557268188 1055.142147482166 334.9976557268188L1055.142147482166 334.9976557268188Q1051.7242755616626 334.9976557268188 1048.2766830157639 336.275642618833Q1044.858811095261 337.5536295108472 1042.6297641905849 341.0903839329331Q1040.3709966605134 344.62713835501893 1040.3709966605134 351.25483781825545L1040.3709966605134 351.25483781825545L1040.3709966605134 469.15655876291567ZM1061.5618025676326 378.4194894299064L1006.9947343411653 378.4194894299064L1006.9947343411653 366.85816615098713L1061.5618025676326 366.85816615098713L1061.5618025676326 378.4194894299064ZM1128.4332097079114 471.7125325469441L1128.4332097079114 471.7125325469441Q1114.6131188989202 471.7125325469441 1103.88397313108 465.6198043408298Q1093.1251067378444 459.5270761347155 1086.9134960301471 447.54966410025673Q1080.7018853224504 435.5722520657979 1080.7018853224504 418.00736245695134L1080.7018853224504 418.00736245695134Q1080.7018853224504 400.35331097191784 1086.9134960301471 388.4353401882504Q1093.1251067378444 376.4876487791872 1103.88397313108 370.39492057307297Q1114.6131188989202 364.3021923669587 1128.4332097079114 364.3021923669587L1128.4332097079114 364.3021923669587Q1142.1344180153196 364.3021923669587 1152.8635637831599 370.39492057307297Q1163.622430176396 376.4876487791872 1169.7745996333015 388.4353401882504Q1175.926769090207 400.35331097191784 1175.926769090207 418.00736245695134L1175.926769090207 418.00736245695134Q1175.926769090207 435.5722520657979 1169.7745996333015 447.54966410025673Q1163.622430176396 459.5270761347155 1152.8635637831599 465.6198043408298Q1142.1344180153196 471.7125325469441 1128.4332097079114 471.7125325469441ZM1127.987400326976 457.17914672845683L1127.987400326976 457.17914672845683Q1137.9438098345286 457.17914672845683 1144.8984361771177 452.4238466651481Q1151.8530625197068 447.63882597644374 1155.4492581925838 438.8712414847183Q1159.0157332400654 430.1036569929929 1159.0157332400654 418.00736245695134L1159.0157332400654 418.00736245695134Q1159.0157332400654 399.7291778386085 1151.4369737641673 389.17835582314234Q1143.8284936628734 378.6275338076762 1128.8492984634509 378.6275338076762L1128.8492984634509 378.6275338076762Q1118.8037270797113 378.6275338076762 1111.9085419879134 383.41255449638055Q1104.9836362707206 388.16785455968926 1101.417161223239 396.994880302206Q1097.8209655503615 405.8219060447228 1097.8209655503615 418.00736245695134L1097.8209655503615 418.00736245695134Q1097.8209655503615 436.10722332292016 1105.4888869024467 446.62832471299066Q1113.1270876291364 457.17914672845683 1127.987400326976 457.17914672845683ZM1225.0549628692652 469.15655876291567L1208.3519713968935 469.15655876291567L1208.3519713968935 323.22828807012974L1225.0549628692652 323.22828807012974L1225.0549628692652 469.15655876291567ZM1253.0815126173907 459.20014925536304L1253.0815126173907 459.20014925536304Q1253.0815126173907 454.1773635634932 1256.6182670394765 450.5514472652203Q1260.1253008361668 446.89581034155174 1265.4750134073893 446.89581034155174L1265.4750134073893 446.89581034155174Q1270.8247259786112 446.89581034155174 1274.569524778467 450.5514472652203Q1278.3143235783227 454.1773635634932 1278.3143235783227 459.20014925536304L1278.3143235783227 459.20014925536304Q1278.3143235783227 464.22293494723283 1274.569524778467 467.67052749313166Q1270.8247259786112 471.08839941363476 1265.4750134073893 471.08839941363476L1265.4750134073893 471.08839941363476Q1260.1253008361668 471.08839941363476 1256.6182670394765 467.6110862423403Q1253.0815126173907 464.1337730710458 1253.0815126173907 459.20014925536304ZM1315.8811940784612 342.6952977042998L1315.8811940784612 342.6952977042998Q1310.7395258850088 342.6952977042998 1307.7377427200454 339.7529557901275Q1304.7656801804774 336.8106138759552 1304.7656801804774 331.99587256185515L1304.7656801804774 331.99587256185515Q1304.7656801804774 327.27029312394217 1307.7377427200454 324.50627496214395Q1310.7395258850088 321.7125361749501 1315.8811940784612 321.7125361749501L1315.8811940784612 321.7125361749501Q1321.0228622719142 321.7125361749501 1324.0246454368776 324.50627496214395Q1326.9967079764456 327.27029312394217 1326.9967079764456 331.99587256185515L1326.9967079764456 331.99587256185515Q1326.9967079764456 336.8106138759552 1324.0246454368776 339.7529557901275Q1321.0228622719142 342.6952977042998 1315.8811940784612 342.6952977042998ZM1324.2326898146475 469.15655876291567L1307.5296983422754 469.15655876291567L1307.5296983422754 366.65012177321734L1324.2326898146475 366.65012177321734L1324.2326898146475 469.15655876291567ZM1407.2423965447797 471.7125325469441L1407.2423965447797 471.7125325469441Q1393.4520263611848 471.7125325469441 1382.6931599679488 465.6198043408298Q1371.9342935747127 459.5270761347155 1365.7524034924113 447.54966410025673Q1359.5407927847145 435.5722520657979 1359.5407927847145 418.00736245695134L1359.5407927847145 418.00736245695134Q1359.5407927847145 400.35331097191784 1365.7524034924113 388.4353401882504Q1371.9342935747127 376.4876487791872 1382.6931599679488 370.39492057307297Q1393.4520263611848 364.3021923669587 1407.2423965447797 364.3021923669587L1407.2423965447797 364.3021923669587Q1420.943604852188 364.3021923669587 1431.702471245424 370.39492057307297Q1442.46133763866 376.4876487791872 1448.6135070955656 388.4353401882504Q1454.7656765524712 400.35331097191784 1454.7656765524712 418.00736245695134L1454.7656765524712 418.00736245695134Q1454.7656765524712 435.5722520657979 1448.6135070955656 447.54966410025673Q1442.46133763866 459.5270761347155 1431.702471245424 465.6198043408298Q1420.943604852188 471.7125325469441 1407.2423965447797 471.7125325469441ZM1406.8263077892402 457.17914672845683L1406.8263077892402 457.17914672845683Q1416.7827172967927 457.17914672845683 1423.7373436393818 452.4238466651481Q1430.691969981971 447.63882597644374 1434.2584450294526 438.8712414847183Q1437.8546407023296 430.1036569929929 1437.8546407023296 418.00736245695134L1437.8546407023296 418.00736245695134Q1437.8546407023296 399.7291778386085 1430.2461606010356 389.17835582314234Q1422.6674011251375 378.6275338076762 1407.688205925715 378.6275338076762L1407.688205925715 378.6275338076762Q1397.6129139165796 378.6275338076762 1390.7177288247822 383.41255449638055Q1383.8225437329847 388.16785455968926 1380.2263480601073 396.994880302206Q1376.6598730126257 405.8219060447228 1376.6598730126257 418.00736245695134L1376.6598730126257 418.00736245695134Q1376.6598730126257 436.10722332292016 1384.2980737393154 446.62832471299066Q1391.9659950914006 457.17914672845683 1406.8263077892402 457.17914672845683Z " fill="#c5fad5" transform="matrix(0.6014714317222729,0,0,0.6014714317222728,0,61.38872350937439)"/></g></svg>